<?xml version="1.0" ?><!DOCTYPE svg  PUBLIC '-//W3C//DTD SVG 1.1//EN'  'http://www.w3.org/Graphics/SVG/1.1/DTD/svg11.dtd'><svg enable-background="new 0 0 128 128" id="Layer_1" version="1.1" viewBox="0 0 128 128" xml:space="preserve" xmlns="http://www.w3.org/2000/svg" xmlns:xlink="http://www.w3.org/1999/xlink"><g><path d="M106.9,68.1h5.2l0,0h3.5c0.3,0,0.6-0.1,0.8-0.3l0,0c0.2-0.2,0.3-0.5,0.3-0.8v-15c0-0.3-0.1-0.6-0.4-0.8   c-0.2-0.2-0.5-0.4-0.8-0.4h-3.5h-5.2H84.1h0l-0.1,0h0l-0.1,0h0l-0.1,0h0l-0.1,0h0l-0.1,0h0l-0.1,0h0l-0.1,0h0l-0.1,0h0l-0.1,0h0   l-0.1,0h0l-0.1,0h0l-0.1,0h0l-0.1,0h0l-0.1,0h0l-0.1,0h0l-0.1,0h0l-0.1,0h0l-0.1,0L82,51l-0.1,0h0l-0.1,0h0l-0.1,0h0l-0.1,0h0   l-0.1,0h0l-0.1,0h0l-0.1,0l-0.1,0l-0.1,0h0l-0.1,0h0l-0.1,0h0l-0.1,0h0l-0.1,0h0l-0.1,0l-0.1,0l-0.1,0h0l-0.1,0l-0.1,0l-0.1,0   l-0.1,0h0l-0.1,0l-0.1,0.1l-0.1,0.1l-0.1,0.1L79.6,52l-0.1,0.1l-0.1,0.1l-0.1,0.1l-0.1,0.1l-0.1,0.1l-0.1,0.1L79,52.4l-0.1,0.1   l-0.1,0.1l-0.1,0.1l-0.1,0.1l-0.1,0.1h0l-0.1,0.1l-0.1,0.1l-0.1,0.1L78.2,53l-0.1,0.1l-0.1,0.1L78,53.2l-0.1,0.1l-0.1,0.1l-0.1,0.1   l-0.1,0.1l-0.1,0.1l-0.1,0.1l-0.1,0.1l-0.1,0.1l-0.1,0.1v0L77.3,54l-0.1,0.1l-0.1,0.1l-0.1,0.1l-0.1,0.1L77,54.4l-0.1,0.1l-0.1,0.1   l-0.1,0.1l-0.1,0.1l-0.1,0.1l-0.1,0.1L76.6,55l-0.1,0.1l-0.1,0.1l-0.1,0.1l0,0.1v0l0,0.1l0,0.1l0,0.1l0,0.1v0l0,0.1l0,0.1l0,0.1v0   l0,0.1v0l0,0.1v0l0,0.1v0l0,0.1v0l0,0.1l0,0.1l0,0.1v0l0,0.1v0l0,0.1v0l0,0.1v0l0,0.1v0l0,0.1v0l0,0.1l0,0.1l0,0.1v0l0,0.1v0l0,0.1   v0l0,0.1v0l0,0.1v0l0,0.1v0l0,0.1l0,0.1v0l0,0.1v0l0,0.1v0l0,0.1v0l0,0.1v0l0,0.1v0l0,0.1v0l0,0.1v0l0,0.1v0l0,0.1v0l0,0.1v0v0   l0,0.1l0,0.1l0,0.1l0,0.1v0l0,0.1l0,0.1l0,0.1l0,0.1v0l0,0.1l0,0.1v0l0,0.1l0,0.1l0,0.1v0l0,0.1v0l0,0.1l0,0.1l0,0.1v0l0,0.1v0   l0,0.1v0l0,0.1v0l0,0.1l0,0.1v0l0,0.1v0l0,0.1l0,0.1v0l0,0.1v0l0,0.1l0,0.1l0,0.1l0,0.1v0l0,0.1v0l0,0.1v0l0,0.1v0l0,0.1l0,0.1v0   l0,0.1l0,0.1v0l0,0.1v0l0,0.1l0,0.1v0l0.1,0.1v0l0.1,0.1l0.1,0.1v0l0.1,0.1v0l0.1,0.1l0.1,0.1l0.1,0.1v0l0.1,0.1v0l0.1,0.1l0.1,0.1   l0.1,0.1l0.1,0.1v0l0.1,0.1v0l0.1,0.1v0l0.1,0.1l0.1,0.1v0l0.1,0.1v0l0.1,0.1v0l0.1,0.1v0l0.1,0.1l0.1,0.1l0.1,0.1l0.1,0.1l0.1,0.1   l0.1,0.1l0.1,0.1l0.1,0.1v0l0.1,0.1l0.1,0.1l0.1,0.1l0.1,0.1l0.1,0.1h0l0.1,0.1l0.1,0.1l0.1,0.1l0.1,0.1l0.1,0.1l0.1,0.1l0.1,0.1   l0.1,0.1l0.1,0.1v0l0.1,0.1l0.1,0.1l0.1,0.1v0l0.1,0.1v0l0.1,0.1v0l0.1,0.1v0l0.1,0.1v0l0.1,0l0,0l0.1,0v0l0.1,0v0l0.1,0v0l0.1,0   l0,0l0.1,0v0l0.1,0l0.1,0l0,0l0.1,0h0l0.1,0l0,0l0.1,0l0,0l0.1,0h0l0.1,0l0.1,0v0l0.1,0l0,0l0.1,0l0,0l0.1,0l0,0l0.1,0l0,0l0.1,0   l0,0l0.1,0l0,0l0.1,0v0l0.1,0v0l0.1,0l0,0l0.1,0l0,0l0.1,0l0,0l0.1,0l0,0l0.1,0h0l0.1,0l0,0l0.1,0l0,0l0.1,0l0,0l0.1,0l0,0l0.1,0   l0,0l0.1,0l0,0l0.1,0l0,0l0.1,0l0,0l0.1,0l0,0l0.1,0l0,0l0.1,0l0,0l0.1,0l0,0l0.1,0H106.9z M110.2,72.1H109v4.7l0.1-0.2   c0.7-1.1,1.1-2.5,1.1-3.9V72.1z M84.9,56.1c1.9,0,3.4,1.5,3.4,3.4c0,1.9-1.5,3.4-3.4,3.4c-1.9,0-3.4-1.5-3.4-3.4   C81.6,57.6,83.1,56.1,84.9,56.1z M35.5,78v-6.5c-0.7,0.2-1.3,0.5-1.8,0.9c-1.1,0.8-1.7,1.7-1.7,2.9c0,0.6,0.1,1,0.4,1.4   c0.2,0.4,0.7,0.7,1.3,0.9c0.6,0.2,1.2,0.4,1.6,0.5L35.5,78z M39.5,82.6v7.2c0.8-0.2,1.5-0.4,2.2-0.8c1.1-0.7,1.7-1.6,1.7-2.8   c0-1.3-0.5-2.1-1.5-2.7C41.3,83.2,40.5,82.9,39.5,82.6z M35.5,64.8c0-1.1,0.9-2,2-2c1.1,0,2,0.9,2,2v2.6c2.3,0.1,4.2,0.6,5.8,1.3   c1,0.5,1.5,1.1,1.5,1.8c0,1.4-0.6,2.1-1.9,2.1c-0.3,0-1.2-0.2-2.7-0.7c-0.9-0.3-1.8-0.5-2.7-0.6v7.3c2.4,0.4,4.3,1.1,5.7,2   c1.7,1.1,2.5,2.8,2.5,5.2c0,2.5-1,4.5-2.9,6c-1.4,1.1-3.2,1.8-5.3,2v2.7c0,1.1-0.9,2-2,2c-1.1,0-2-0.9-2-2V94c-1.7-0.1-3.4-0.5-5-1   c-2.2-0.7-3.2-1.5-3.2-2.4c0-1.6,0.7-2.4,2-2.4c0.3,0,1.4,0.3,3.2,0.9c1,0.3,2,0.6,3,0.7v-7.9c-0.4-0.1-0.8-0.1-1.1-0.2   c-0.7-0.1-1.5-0.4-2.5-0.7c-0.9-0.3-1.7-0.7-2.2-1.2c-0.6-0.4-1-1-1.4-1.8c-0.4-0.8-0.6-1.6-0.6-2.6c0-2.3,1-4.2,3.1-5.8   c1.4-1.1,3-1.8,4.8-2.1V64.8z M51.8,66.4c-3.7-3.7-8.7-5.9-14.3-5.9c-5.6,0-10.7,2.3-14.3,5.9c-3.7,3.7-5.9,8.7-5.9,14.3   c0,5.6,2.3,10.7,5.9,14.3c3.7,3.7,8.7,5.9,14.3,5.9c5.6,0,10.7-2.3,14.3-5.9c3.7-3.7,5.9-8.7,5.9-14.3C57.8,75.1,55.5,70,51.8,66.4   z M37.5,56.4c6.7,0,12.8,2.7,17.2,7.1c4.4,4.4,7.1,10.5,7.1,17.2c0,6.7-2.7,12.8-7.1,17.2c-4.4,4.4-10.5,7.1-17.2,7.1   c-6.7,0-12.8-2.7-17.2-7.1c-4.4-4.4-7.1-10.5-7.1-17.2c0-6.7,2.7-12.8,7.1-17.2C24.7,59.1,30.8,56.4,37.5,56.4z M56.1,62.1   c-4.8-4.8-11.4-7.7-18.6-7.7c-7.3,0-13.9,3-18.6,7.7c-4.8,4.8-7.7,11.4-7.7,18.6c0,7.3,3,13.9,7.7,18.6c4.8,4.8,11.4,7.7,18.6,7.7   c7.3,0,13.9-3,18.6-7.7c4.8-4.8,7.7-11.4,7.7-18.6C63.9,73.4,60.9,66.8,56.1,62.1z M65.3,93.1c-1.5,3.4-3.7,6.5-6.3,9.1   c-5.5,5.5-13.1,8.9-21.5,8.9s-16-3.4-21.5-8.9c-5.5-5.5-8.9-13.1-8.9-21.5s3.4-16,8.9-21.5c2.2-2.2,4.8-4.1,7.5-5.5l0-16.4   c0-3.2,1.3-6.1,3.4-8.1c0.6-0.6,1.2-1.1,1.9-1.5c0.2-2.8,1.5-5.4,3.4-7.3c2.1-2.1,5-3.4,8.1-3.4h62.4c3.2,0,6.1,1.3,8.1,3.4   c2.1,2.1,3.4,5,3.4,8.1v18.3h1.5c1.4,0,2.7,0.6,3.7,1.5c0.9,0.9,1.5,2.3,1.5,3.7v15c0,1.4-0.6,2.7-1.5,3.7l0,0l0,0l0,0   c-1,0.9-2.3,1.5-3.7,1.5h-1.5v0.6c0,2.2-0.6,4.3-1.7,6c-0.9,1.5-2.1,2.7-3.6,3.6c-0.2,2.8-1.5,5.4-3.4,7.3c-2.1,2.1-5,3.4-8.1,3.4   H65.3z M67.9,82.1c-0.1,2.4-0.5,4.8-1.1,7h30.7c2.1,0,3.9-0.8,5.3-2.2c1.4-1.4,2.2-3.2,2.2-5.3v-0.3v-9.1H84.1l0,0l-0.2,0l0,0   l-0.2,0l0,0l-0.2,0l0,0l-0.2,0l0,0l-0.2,0l0,0l-0.2,0l0,0l-0.2,0l0,0l-0.2,0l0,0l-0.2,0l0,0l-0.2,0l0,0l-0.2,0l0,0l-0.2,0l0,0   L82,72l0,0l-0.2,0l0,0l-0.2,0l0,0l-0.2,0l0,0l-0.2,0l0,0l-0.2,0v0l-0.2,0l0,0l-0.2,0l0,0l-0.2,0l0,0l-0.2,0l0,0l-0.1,0l0,0l-0.1,0   v0l-0.1,0v0l-0.1,0v0l-0.1-0.1l0,0l-0.1-0.1h0l-0.1-0.1l0,0l-0.1-0.1v0l-0.1-0.1l0,0l-0.1-0.1v0L79,71.1v0L78.9,71l0,0l-0.1-0.1   l0,0l-0.1-0.1v0l-0.1-0.1v0l-0.1-0.1h0l-0.1-0.1h0L78,70.6l0,0l-0.1-0.1v0l-0.1-0.1l-0.1-0.1l-0.1-0.1v0l-0.1-0.1l-0.1-0.1v0   L77.1,70v0L77,70l-0.1-0.1l-0.1-0.1l-0.1-0.1l-0.1-0.1l-0.1-0.1l-0.1-0.1l-0.1-0.1L76,69.2v0l-0.1-0.1L75.8,69v0l-0.1-0.1l-0.1-0.1   l-0.1-0.1l-0.1-0.1l-0.1-0.1l-0.1-0.1L75,68.3l-0.1-0.1l-0.1-0.1L74.7,68l-0.1-0.1l-0.1-0.1l-0.1-0.1l-0.1-0.1l-0.1-0.1l-0.1-0.1   L74,67.1L73.9,67l-0.1-0.1l-0.1-0.1l-0.1-0.1l-0.1-0.1v0l-0.1-0.1v0l-0.1-0.1l-0.1-0.1v0L73.2,66l-0.1-0.1l-0.1-0.1v0L73,65.6v0   l-0.1-0.1v0l-0.1-0.1l-0.1-0.1v0l-0.1-0.1l-0.1-0.1l-0.1-0.1l-0.1-0.1v0l-0.1-0.1l-0.1-0.1v0l-0.1-0.1v0l-0.1-0.1v0l-0.1-0.1v0   l-0.1-0.1l-0.1-0.1v0L72,63.5v0l0-0.1v0l0-0.1v0l0-0.1l0-0.2v0l0-0.2l0-0.2v0l0-0.2v0l0-0.2v0l0-0.2v0l0-0.2v0l0-0.2l0-0.2l0-0.2   l0-0.2v0l0-0.2l0-0.2v0l0-0.2l0-0.2l0-0.2v0l0-0.2l0-0.2v0l0-0.2l0-0.2l0-0.2l0-0.2l0-0.2v0v0l0-0.2v0l0-0.2v0l0-0.2v0l0-0.2v0   l0-0.2v0l0-0.2v0l0-0.2v0l0-0.2v0l0-0.2v0l0-0.2v0l0-0.2v0l0-0.2v0l0-0.2v0l0-0.2v0l0-0.2v0l0-0.2v0l0-0.2v0l0-0.2l0-0.2v0l0-0.2v0   l0-0.2v0l0-0.2v0l0-0.1v0l0-0.1l0-0.1l0-0.1l0.1-0.1v0l0.1-0.1v0l0.1-0.1v0l0.1-0.1l0.1-0.1v0l0.1-0.1l0.1-0.1l0.1-0.1v0l0.1-0.1v0   l0.1-0.1l0.1-0.1l0.1-0.1v0l0.1-0.1v0l0.1-0.1v0l0.1-0.1l0.1-0.1l0.1-0.1l0.1-0.1l0.1-0.1l0.1-0.1l0.1-0.1l0.1-0.1l0.1-0.1l0.1-0.1   l0.1-0.1l0.1-0.1l0.1-0.1l0.1-0.1l0.1-0.1l0.1-0.1l0.1-0.1l0.1-0.1l0.1-0.1l0.1-0.1l0.1-0.1l0.1-0.1l0.1-0.1l0.1-0.1l0.1-0.1   l0.1-0.1l0.1-0.1l0.1-0.1l0.1-0.1l0.1-0.1l0.1-0.1l0.1-0.1l0.1-0.1l0.1-0.1l0.1-0.1l0.1-0.1l0.1-0.1l0.1-0.1l0.1-0.1l0.1-0.1   l0.1-0.1l0.1-0.1l0.1-0.1l0.1-0.1l0.1-0.1l0.1-0.1l0.1-0.1l0.1-0.1h0l0.1-0.1h0l0.1-0.1h0l0.1-0.1l0.1-0.1l0.1-0.1h0l0.1-0.1h0   l0.1-0.1l0.1-0.1l0.1-0.1h0l0.1-0.1l0.1-0.1h0l0.1-0.1h0l0.1-0.1h0l0.1-0.1l0.1,0l0.1,0l0.1,0h0l0.1,0h0l0.2,0h0l0.2,0h0l0.2,0h0   l0.2,0l0.2,0h0l0.2,0h0l0.2,0h0l0.2,0h0l0.2,0h0l0.2,0h0l0.2,0h0l0.2,0h0l0.2,0h0l0.2,0h0l0.2,0h0l0.2,0h0l0.2,0h0l0.2,0h0l0.2,0h0   l0.2,0h0l0.2,0h0l0.2,0h0h20.8v-9.4c0-2.1-0.8-3.9-2.2-5.3c-1.4-1.4-3.2-2.2-5.3-2.2H35.1h0l0,0l0,0h0l0,0l-0.1,0h0l-0.1,0l0,0l0,0   l0,0l0,0l0,0l0,0l0,0l0,0l0,0l0,0l0,0l0,0l0,0l0,0l0,0l0,0l0,0l0,0l0,0l0,0l0,0l0,0l0,0l0,0l-0.1,0l0,0c-1.7,0.2-3.3,1-4.4,2.2   c-1.4,1.4-2.2,3.2-2.2,5.3V52c2-0.7,4-1.2,6.2-1.4l0.1,0l0.3,0l0.1,0l0,0l0.2,0l0.1,0l0.1,0l0,0l0.2,0l0,0l0.1,0l0.1,0h0l0.1,0l0,0   l0.1,0l0.1,0l0.1,0l0,0l0.1,0l0.3,0l0,0l0,0l0,0l0.3,0l0.1,0l0,0l0,0l0.3,0l0,0l0,0l0.3,0l0,0c0.1,0,0.3,0,0.4,0   c8.4,0,16,3.4,21.5,8.9c5.5,5.5,8.9,13.1,8.9,21.5c0,0.1,0,0.3,0,0.4l0,0.1l0,0.3l0,0.1l0,0l0,0.1l0,0.2L67.9,82.1L67.9,82.1z    M35.1,25.7h62.4c3.2,0,6.1,1.3,8.1,3.4c2.1,2.1,3.4,5,3.4,8.1v9.4h1.2V28.4c0-2.1-0.8-3.9-2.2-5.3c-1.4-1.4-3.2-2.2-5.3-2.2H40.3   c-2.1,0-3.9,0.8-5.3,2.2c-0.8,0.8-1.4,1.7-1.8,2.7c0.3,0,0.6-0.1,0.9-0.1l0,0l0.1,0l0,0l0,0l0,0l0.1,0l0,0l0,0l0,0l0,0l0,0l0,0l0,0   l0,0l0,0l0,0l0,0l0,0l0,0l0,0l0,0l0,0l0,0l0,0l0,0l0,0l0,0l0,0l0,0h0l0,0L35.1,25.7L35.1,25.7L35.1,25.7L35.1,25.7z" fill="#2B2D03"/><path clip-rule="evenodd" d="M97.4,29.8H35.1c-4.1,0-7.5,3.3-7.5,7.5V52   c10.9-3.7,23.1-1,31.4,7.3c5.9,5.9,9.3,14.1,8.9,22.8c-0.1,2.4-0.5,4.8-1.1,7h30.7c4.1,0,7.5-3.4,7.5-7.5v-9.4H84.1l-2.6-0.3   l-0.3-0.1l-0.9-0.2l-0.1,0l-0.1,0l-0.6-0.2l-0.3-0.1L79,71.1l-0.4-0.2l-0.1-0.1l-0.5-0.3l-0.4-0.2l-0.3-0.2L77.1,70L76,69.2   L75.8,69l-2.1-2.4c-0.7-1-1.8-3.1-1.9-4.2l-0.3-2.4l0.2-2.9c0.1-1.5,1.2-3.8,2.2-5.1c1.1-1.5,2.5-2.8,4.2-3.8   c1.9-1.1,4-1.6,6.2-1.6h20.8v-9.4C104.9,33.1,101.5,29.8,97.4,29.8z" fill="#C0D863" fill-rule="evenodd"/><path clip-rule="evenodd" d="M84.9,56.1c1.9,0,3.4,1.5,3.4,3.4c0,1.9-1.5,3.4-3.4,3.4   c-1.9,0-3.4-1.5-3.4-3.4C81.6,57.6,83.1,56.1,84.9,56.1z M115.7,50.7l-31.7,0l-2.3,0.3l-3.1,1.6l-2.2,2.6c-0.9,1.6-1.2,3.4-1,5.1   c0.2,2.1,1.2,3.9,2.7,5.4l1.1,0.9l0.3,0.2l0.1,0.1l0.1,0.1l0.1,0.1l0.1,0.1l0.2,0.1l0.1,0l0.1,0l0.2,0.1l0.8,0.3l0.7,0.2l0.1,0   l1.5,0.2l23.3,0l8.7,0c0.7,0,1.2-0.5,1.2-1.2v-15C116.9,51.3,116.3,50.7,115.7,50.7z" fill="#99AF3E" fill-rule="evenodd"/><path clip-rule="evenodd" d="M97.4,25.7c6.3,0,11.5,5.2,11.5,11.5v9.4h1.2V28.4   c0-4.1-3.4-7.5-7.5-7.5H40.3c-3.2,0-6,2-7,4.9l1.8-0.1H97.4z" fill="#99AF3E" fill-rule="evenodd"/><path clip-rule="evenodd" d="M110.2,72.1H109v4.7C110,75.2,110.2,74,110.2,72.1z" fill="#99AF3E" fill-rule="evenodd"/><path clip-rule="evenodd" d="M46.8,70.5c0,1.4-0.6,2.1-1.9,2.1c-0.7,0-3.4-1.1-5.4-1.3v7.3   c2.4,0.4,4.3,1.1,5.7,2c1.7,1.1,2.5,2.8,2.5,5.2c0,4.9-3.7,7.4-8.2,8v2.7c0,2.7-4,2.7-4,0V94c-1.9-0.2-8.2-1.2-8.2-3.3   c0-1.6,0.7-2.4,2-2.4c0.3,0,1.4,0.3,3.2,0.9c1,0.3,2,0.6,3,0.7v-7.9c-1.8-0.3-4.4-0.9-5.8-2.1c-1.3-1-2-2.6-2-4.4   c0-4.3,4-7.2,7.9-7.9v-2.8c0-2.7,4-2.7,4,0v2.6C41.5,67.5,46.8,68.3,46.8,70.5z M51.8,95c7.9-7.9,7.9-20.7,0-28.7   c-7.9-7.9-20.7-7.9-28.7,0c-7.9,7.9-7.9,20.7,0,28.7C31.1,103,43.9,103,51.8,95z" fill="#FFE64C" fill-rule="evenodd"/><path clip-rule="evenodd" d="M35.5,78v-6.5C33.7,72,32,73.3,32,75.3c0,1.2,0.5,1.9,1.7,2.3   L35.5,78z" fill="#FFE64C" fill-rule="evenodd"/><path clip-rule="evenodd" d="M39.5,82.6v7.2c4.8-1,4.5-5.2,2.3-6.4   C41.3,83.2,40.5,82.9,39.5,82.6z" fill="#FFE64C" fill-rule="evenodd"/><path clip-rule="evenodd" d="M56.1,99.4c10.3-10.3,10.3-27,0-37.3c-10.3-10.3-27-10.3-37.3,0   c-10.3,10.3-10.3,27,0,37.3C29.1,109.7,45.8,109.7,56.1,99.4z M61.8,80.7c0,13.4-10.9,24.3-24.3,24.3c-13.4,0-24.3-10.9-24.3-24.3   c0-13.4,10.9-24.3,24.3-24.3C50.9,56.4,61.8,67.3,61.8,80.7z" fill="#FFE64C" fill-rule="evenodd"/></g></svg>