<?xml version="1.0" ?><!DOCTYPE svg  PUBLIC '-//W3C//DTD SVG 1.1//EN'  'http://www.w3.org/Graphics/SVG/1.1/DTD/svg11.dtd'><svg enable-background="new 0 0 128 128" id="Layer_1" version="1.1" viewBox="0 0 128 128" xml:space="preserve" xmlns="http://www.w3.org/2000/svg" xmlns:xlink="http://www.w3.org/1999/xlink"><g><path d="M112.6,46.7H15.4v8.9h97.3V46.7z M112.6,59.6H15.4v27.6c0,1.6,0.6,3,1.7,4.1c1,1,2.5,1.7,4.1,1.7h85.7   c1.6,0,3-0.6,4.1-1.7c1-1,1.7-2.5,1.7-4.1V59.6z M15.4,42.7h97.3v-1.9c0-1.6-0.6-3-1.7-4.1c-1-1-2.5-1.7-4.1-1.7H21.1   c-1.6,0-3,0.6-4.1,1.7c-1,1-1.7,2.5-1.7,4.1V42.7z M88,75.3c-0.8,1-1.2,2.2-1.2,3.5c0,1.3,0.5,2.6,1.2,3.5c0.8-1,1.2-2.2,1.2-3.5   C89.3,77.5,88.8,76.3,88,75.3z M96.5,74.8c-1-1-2.5-1.7-4-1.7c-0.3,0-0.7,0-1,0.1c1.1,1.6,1.8,3.5,1.8,5.6c0,2.1-0.7,4-1.8,5.6   c0.3,0.1,0.6,0.1,1,0.1c1.6,0,3-0.6,4-1.7c1-1,1.7-2.5,1.7-4C98.2,77.3,97.6,75.9,96.5,74.8z M84.5,84.5c-1.1-1.6-1.8-3.5-1.8-5.6   c0-2.1,0.7-4,1.8-5.6c-0.3-0.1-0.6-0.1-1-0.1c-1.6,0-3,0.6-4,1.7c-1,1-1.7,2.5-1.7,4c0,1.6,0.6,3,1.7,4c1,1,2.5,1.7,4,1.7   C83.9,84.6,84.2,84.5,84.5,84.5z M92.5,69.1c2.7,0,5.1,1.1,6.9,2.9c1.8,1.8,2.9,4.2,2.9,6.9c0,2.7-1.1,5.1-2.9,6.9   c-1.8,1.8-4.2,2.9-6.9,2.9c-1.6,0-3.1-0.4-4.5-1.1c-1.3,0.7-2.9,1.1-4.5,1.1c-2.7,0-5.1-1.1-6.9-2.9c-1.8-1.8-2.9-4.2-2.9-6.9   c0-2.7,1.1-5.1,2.9-6.9c1.8-1.8,4.2-2.9,6.9-2.9c1.6,0,3.1,0.4,4.5,1.1C89.4,69.5,90.9,69.1,92.5,69.1z M21.1,31h85.7   c2.7,0,5.1,1.1,6.9,2.9c1.8,1.8,2.9,4.2,2.9,6.9v3.9v12.9v29.6c0,2.7-1.1,5.1-2.9,6.9c-1.8,1.8-4.2,2.9-6.9,2.9H21.1   c-2.7,0-5.1-1.1-6.9-2.9c-1.8-1.8-2.9-4.2-2.9-6.9V57.6V44.7v-3.9c0-2.7,1.1-5.1,2.9-6.9C16,32.1,18.4,31,21.1,31z" fill="#2B2D03"/><path clip-rule="evenodd" d="M76.7,72c1.8-1.8,4.2-2.9,6.9-2.9c1.6,0,3.1,0.4,4.5,1.1   c1.3-0.7,2.9-1.1,4.5-1.1c2.7,0,5.1,1.1,6.9,2.9c1.8,1.8,2.9,4.2,2.9,6.9c0,2.7-1.1,5.1-2.9,6.9c-1.8,1.8-4.2,2.9-6.9,2.9   c-1.6,0-3.1-0.4-4.5-1.1c-1.3,0.7-2.9,1.1-4.5,1.1c-2.7,0-5.1-1.1-6.9-2.9c-1.8-1.8-2.9-4.2-2.9-6.9C73.8,76.2,74.9,73.7,76.7,72z    M15.4,59.6v27.6c0,1.6,0.6,3,1.7,4.1c1,1,2.5,1.7,4.1,1.7h85.7c1.6,0,3-0.6,4.1-1.7c1-1,1.7-2.5,1.7-4.1V59.6H15.4z" fill="#C0D863" fill-rule="evenodd"/><rect clip-rule="evenodd" fill="#FFE64C" fill-rule="evenodd" height="8.9" width="97.3" x="15.4" y="46.7"/><path clip-rule="evenodd" d="M15.4,42.7h97.3v-1.9c0-1.6-0.6-3-1.7-4.1c-1-1-2.5-1.7-4.1-1.7   H21.1c-1.6,0-3,0.6-4.1,1.7c-1,1-1.7,2.5-1.7,4.1V42.7z" fill="#C0D863" fill-rule="evenodd"/><path clip-rule="evenodd" d="M88,75.3c-0.8,1-1.2,2.2-1.2,3.5c0,1.3,0.5,2.6,1.2,3.5   c0.8-1,1.2-2.2,1.2-3.5C89.3,77.5,88.8,76.3,88,75.3z" fill="#FFE64C" fill-rule="evenodd"/><path clip-rule="evenodd" d="M82.8,78.9c0-2.1,0.7-4,1.8-5.6c-0.3-0.1-0.6-0.1-1-0.1   c-1.6,0-3,0.6-4,1.7c-1,1-1.7,2.5-1.7,4c0,1.6,0.6,3,1.7,4c1,1,2.5,1.7,4,1.7c0.3,0,0.7,0,1-0.1C83.4,82.9,82.8,81,82.8,78.9z" fill="#FFE64C" fill-rule="evenodd"/><path clip-rule="evenodd" d="M93.3,78.9c0,2.1-0.7,4-1.8,5.6c0.3,0.1,0.6,0.1,1,0.1   c1.6,0,3-0.6,4-1.7c1-1,1.7-2.5,1.7-4c0-1.6-0.6-3-1.7-4c-1-1-2.5-1.7-4-1.7c-0.3,0-0.7,0-1,0.1C92.7,74.8,93.3,76.8,93.3,78.9z" fill="#FFE64C" fill-rule="evenodd"/></g></svg>