<?xml version="1.0" ?><svg viewBox="-9 -9 18 18" xmlns="http://www.w3.org/2000/svg"><circle cx="0" cy="0" r="1"/><circle cx="0" cy="0" r="4" style="fill: none; stroke: black"/><path d="M-0.7 6.2 L0.7 6.2 1.2 3.5 -1.2 3.5 Z" transform="rotate(22.5)"/><path d="M-0.7 6.2 L0.7 6.2 1.2 3.5 -1.2 3.5 Z" transform="rotate(67.5)"/><path d="M-0.7 6.2 L0.7 6.2 1.2 3.5 -1.2 3.5 Z" transform="rotate(112.5)"/><path d="M-0.7 6.2 L0.7 6.2 1.2 3.5 -1.2 3.5 Z" transform="rotate(157.5)"/><path d="M-0.7 6.2 L0.7 6.2 1.2 3.5 -1.2 3.5 Z" transform="rotate(202.5)"/><path d="M-0.7 6.2 L0.7 6.2 1.2 3.5 -1.2 3.5 Z" transform="rotate(245.5)"/><path d="M-0.7 6.2 L0.7 6.2 1.2 3.5 -1.2 3.5 Z" transform="rotate(292.5)"/><path d="M-0.7 6.2 L0.7 6.2 1.2 3.5 -1.2 3.5 Z" transform="rotate(337.5)"/></svg>